<svg width="215" height="39" viewBox="0 0 215 39" fill="none" xmlns="http://www.w3.org/2000/svg">
<g clip-path="url(#clip0_206_18)">
<path d="M23.9001 35C23.9001 35.5 23.7001 35.9 23.3001 36C22.1001 36.7 19.5001 37.7 17.5001 38.3C17.5001 38.4 17.4001 38.4 17.3001 38.4C17.2001 38.5 17.0001 38.5 16.8001 38.5C15.8001 38.5 14.9001 37.6 14.9001 36.6V19.2C14.9001 19 14.8001 18.7 14.6001 18.6C12.1001 17.2 10.4001 16.3 7.8001 14.8C7.8001 14.8 7.7001 14.8 7.6001 14.7C7.3001 14.5 7.1001 14.2 7.1001 13.8C7.1001 13.4 7.3001 13 7.6001 12.8C7.7001 12.8 7.7001 12.8 7.7001 12.7C10.4001 11.1 22.3001 4.29999 23.6001 3.49999C23.9001 3.39999 23.9001 3.39999 23.9001 3.69999C23.9001 4.49999 23.9001 5.29999 23.9001 5.99999C23.9001 12.1 23.9001 28.9 23.9001 35Z" fill="#F37802"/>
<path d="M24 0.5C23.9 0.4 23.9 0.3 23.8 0.3C23.7 0.1 23.5 0 23.3 0C23.3 0 23.2 0 23.1 0L23 0.1C23 0.1 0.7 12.8 0.3 13.1C0.1 13.3 0 13.6 0 13.8V14C0 14 0 14.3 0 14.4C0 14.6 0 14.6 0 14.7C0 16.4 0 28.3 0 31.5C0 31.7 0 31.9 0.1 32C0.2 32.4 0.4 32.7 0.7 32.9C4.2 34.9 8.4 37.1 10.7 38.3C10.9 38.4 11.1 38.5 11.2 38.5C11.9 38.5 12.4 38 12.4 37.4C12.4 37.4 12.4 26.9 12.4 21.4C12.4 21.1 12.4 21 12.1 20.9C11.4 20.4 10.5 20 9.7 19.5C8.5 18.9 6.5 17.6 4.6 16.6C3.9 16.1 3.2 15.8 2.6 15.4C2.4 15.3 2.2 15.2 2.1 15.1C1.8 14.9 1.7 14.6 1.6 14.3C1.6 14.3 1.6 14.3 1.6 14.2V14.1C1.6 14.1 1.6 14.1 1.6 14C1.6 14 1.6 14 1.6 13.9C1.7 13.7 1.8 13.5 2.1 13.3C2.2 13.3 2.4 13.2 2.6 13.1C2.8 12.9 3.1 12.8 3.3 12.6C9 9.4 21.7 2.2 23.5 1.2C23.7 1.1 23.8 1 23.8 1C23.9 0.9 24 0.8 24 0.6V0.5Z" fill="#0027B3"/>
<path d="M40.2 30.7999V5.3999H43.2V28.1999H56V30.7999H40.2Z" fill="white"/>
<path d="M66.3001 31.0999C64.6001 31.0999 63.3 30.6999 62.1 29.9999C60.9 29.1999 59.9 28.1999 59.3 26.7999C58.6 25.3999 58.3 23.6999 58.3 21.7999C58.3 19.7999 58.6 18.0999 59.3 16.6999C59.9 15.2999 60.9 14.2999 62.1 13.4999C63.3 12.7999 64.6001 12.3999 66.3001 12.3999C67.9001 12.3999 69.3 12.7999 70.5 13.5999C71.7 14.4999 72.4001 15.5999 72.8001 16.9999H72.4001L72.8001 12.6999H75.6C75.5 13.3999 75.5001 14.0999 75.4001 14.7999C75.4001 15.5999 75.3001 16.2999 75.3001 16.8999V30.7999H72.4001V26.5999H72.8001C72.5001 27.9999 71.7 29.0999 70.5 29.8999C69.2 30.6999 67.8001 31.0999 66.3001 31.0999ZM66.8001 28.6999C68.5001 28.6999 69.9001 28.1999 70.9001 26.8999C71.9001 25.6999 72.4001 23.9999 72.4001 21.6999C72.4001 19.3999 71.9001 17.6999 70.9001 16.4999C69.9001 15.2999 68.5001 14.6999 66.8001 14.6999C65.1001 14.6999 63.8 15.2999 62.8 16.4999C61.8 17.6999 61.2001 19.3999 61.2001 21.6999C61.2001 23.9999 61.7 25.6999 62.8 26.8999C63.8 28.1999 65.1001 28.6999 66.8001 28.6999Z" fill="white"/>
<path d="M85.4999 30.7999L78.8999 12.7H81.8999L87.4999 28.7H86.5999L92.2999 12.7H94.7999L100.4 28.7H99.4999L105.1 12.7H108L101.4 30.7999H98.5999L92.7999 14.6H94.1999L88.3999 30.7999H85.4999Z" fill="white"/>
<path d="M111.6 39L110.9 36.5999C112 36.2999 113 36 113.7 35.7C114.5 35.3 115.1 34.8999 115.6 34.2999C116.1 33.6999 116.5 32.9999 116.9 32.0999L117.8 30L117.7 31.2L109.9 12.7H113L119.5 28.6H118.6L125 12.7H128L119.7 32.2999C119.2 33.4999 118.7 34.5 118.2 35.2C117.6 36 117 36.7 116.3 37.2C115.7 37.7 115 37.9999 114.2 38.2999C113.3 38.5999 112.5 38.8 111.6 39Z" fill="white"/>
<path d="M137.8 31.0999C136.2 31.0999 134.8 30.6999 133.6 29.9999C132.4 29.1999 131.5 28.1999 130.8 26.7999C130.2 25.3999 129.8 23.6999 129.8 21.7999C129.8 19.7999 130.2 18.0999 130.8 16.6999C131.5 15.2999 132.4 14.2999 133.6 13.4999C134.8 12.7999 136.2 12.3999 137.8 12.3999C139.4 12.3999 140.8 12.7999 142 13.5999C143.2 14.4999 144 15.5999 144.4 16.9999H144L144.4 12.6999H147.2C147.1 13.3999 147.1 14.0999 147 14.7999C146.9 15.5999 146.9 16.2999 146.9 16.8999V30.7999H144V26.5999H144.4C144 27.9999 143.2 29.0999 142 29.8999C140.8 30.6999 139.4 31.0999 137.8 31.0999ZM138.3 28.6999C140 28.6999 141.4 28.1999 142.4 26.8999C143.4 25.6999 143.9 23.9999 143.9 21.6999C143.9 19.3999 143.4 17.6999 142.4 16.4999C141.4 15.2999 140 14.6999 138.3 14.6999C136.6 14.6999 135.3 15.2999 134.3 16.4999C133.3 17.6999 132.8 19.3999 132.8 21.6999C132.8 23.9999 133.2 25.6999 134.3 26.8999C135.3 28.1999 136.7 28.6999 138.3 28.6999Z" fill="white"/>
<path d="M152.4 30.7999V16.8999C152.4 16.1999 152.4 15.4999 152.4 14.7999C152.3 14.0999 152.2 13.3999 152.2 12.6999H154.9L155.3 16.5999H154.9C155.4 15.2999 156.3 14.1999 157.4 13.4999C158.6 12.6999 159.9 12.3999 161.4 12.3999C163.6 12.3999 165.2 12.9999 166.2 14.0999C167.3 15.1999 167.9 16.9999 167.9 19.4999V30.7999H165V19.6999C165 17.9999 164.6 16.6999 163.9 15.9999C163.3 15.1999 162.2 14.7999 160.8 14.7999C159.1 14.7999 157.8 15.2999 156.8 16.3999C155.8 17.3999 155.3 18.7999 155.3 20.4999V30.7999H152.4Z" fill="white"/>
<path d="M179.8 31.1C178 31.1 176.7 30.6 175.7 29.6C174.8 28.6 174.3 27 174.3 24.9V15H170.8V12.7H174.3V7.8L177.2 7V12.7H182.4V15H177.2V24.7C177.2 26.1 177.5 27.1 178 27.7C178.5 28.4 179.2 28.7 180.2 28.7C180.6 28.7 181 28.6 181.4 28.5C181.8 28.4 182 28.4 182.3 28.2V30.7C182 30.8 181.6 30.9 181.1 31C180.7 31.1 180.3 31.1 179.8 31.1Z" fill="white"/>
<path d="M185.9 30.8V17.1C185.9 16.4 185.9 15.6 185.9 14.8C185.8 14.1 185.8 13.4 185.7 12.7H188.5L188.8 17.1H188.3C188.6 16.1 189 15.2 189.6 14.5C190.2 13.8 190.9 13.3 191.7 12.9C192.5 12.6 193.4 12.3 194.2 12.3C194.6 12.3 194.9 12.3 195.2 12.4C195.5 12.4 195.7 12.5 196 12.6L195.9 15.1C195.6 15 195.2 14.9 194.9 14.9C194.6 14.8 194.3 14.8 193.9 14.8C192.9 14.8 191.9 15.1 191.2 15.6C190.4 16.1 189.8 16.8 189.4 17.6C189 18.4 188.8 19.2 188.8 20.1V30.7001H185.9V30.8Z" fill="white"/>
<path d="M205.6 31.0999C204 31.0999 202.6 30.6999 201.4 29.9999C200.2 29.1999 199.3 28.1999 198.7 26.7999C198 25.3999 197.7 23.6999 197.7 21.7999C197.7 19.7999 198 18.0999 198.7 16.6999C199.3 15.2999 200.2 14.2999 201.4 13.4999C202.6 12.7999 204 12.3999 205.6 12.3999C207.2 12.3999 208.7 12.7999 209.9 13.5999C211.1 14.4999 211.8 15.5999 212.2 16.9999H211.8L212.2 12.6999H215C214.9 13.3999 214.9 14.0999 214.8 14.7999C214.8 15.5999 214.7 16.2999 214.7 16.8999V30.7999H211.8V26.5999H212.2C211.8 27.9999 211.1 29.0999 209.9 29.8999C208.6 30.6999 207.2 31.0999 205.6 31.0999ZM206.2 28.6999C207.9 28.6999 209.3 28.1999 210.3 26.8999C211.3 25.6999 211.8 23.9999 211.8 21.6999C211.8 19.3999 211.3 17.6999 210.3 16.4999C209.3 15.2999 207.9 14.6999 206.2 14.6999C204.5 14.6999 203.1 15.2999 202.1 16.4999C201.2 17.6999 200.6 19.3999 200.6 21.6999C200.6 23.9999 201.1 25.6999 202.1 26.8999C203.1 28.1999 204.5 28.6999 206.2 28.6999Z" fill="white"/>
</g>
<defs>
<clipPath id="clip0_206_18">
<rect width="215" height="39" fill="white"/>
</clipPath>
</defs>
</svg>
