<svg width="215" height="39" viewBox="0 0 215 39" fill="none" xmlns="http://www.w3.org/2000/svg">
    <path
        d="M 23.9 35 C 23.9 35.5 23.7 35.9 23.3 36 C 22.1 36.7 19.5 37.7 17.5 38.3 C 17.5 38.4 17.4 38.4 17.3 38.4 C 17.2 38.5 17 38.5 16.8 38.5 C 15.8 38.5 14.9 37.6 14.9 36.6 V 19.2 C 14.9 19 14.8 18.7 14.6 18.6 C 12.1 17.2 10.4 16.3 7.8 14.8 C 7.8 14.8 7.7 14.8 7.6 14.7 C 7.3 14.5 7.1 14.2 7.1 13.8 C 7.1 13.4 7.3 13 7.6 12.8 C 7.7 12.8 7.7 12.8 7.7 12.7 C 10.4 11.1 22.3 4.3 23.6 3.5 C 23.9 3.4 23.9 3.4 23.9 3.7 C 23.9 4.5 23.9 5.3 23.9 6 C 23.9 12.1 23.9 28.9 23.9 35 Z"
        fill="#F37802" />
    <path
        d="M 24 0.5 C 23.9 0.4 23.9 0.3 23.8 0.3 C 23.7 0.1 23.5 0 23.3 0 C 23.3 0 23.2 0 23.1 0 L 23 0.1 C 23 0.1 0.7 12.8 0.3 13.1 C 0.1 13.3 0 13.6 0 13.8 V 14 C 0 14 0 14.3 0 14.4 C 0 14.6 0 14.6 0 14.7 C 0 16.4 0 28.3 0 31.5 C 0 31.7 0 31.9 0.1 32 C 0.2 32.4 0.4 32.7 0.7 32.9 C 4.2 34.9 8.4 37.1 10.7 38.3 L 10.7 38.3 C 10.9 38.4 11.1 38.5 11.2 38.5 C 11.9 38.5 12.4 38 12.4 37.4 C 12.4 37.4 12.4 26.9 12.4 21.4 C 12.4 21.1 12.4 21 12.1 20.9 C 11.4 20.4 10.5 20 9.7 19.5 C 8.5 18.9 6.5 17.6 4.6 16.6 C 3.9 16.1 3.2 15.8 2.6 15.4 C 2.4 15.3 2.2 15.2 2.1 15.1 C 1.8 14.9 1.7 14.6 1.6 14.3 C 1.6 14.3 1.6 14.3 1.6 14.2 C 1.6 14.2 1.6 14.1 1.6 14.1 C 1.6 14.1 1.6 14.1 1.6 14 C 1.6 14 1.6 14 1.6 13.9 C 1.7 13.7 1.8 13.5 2.1 13.3 C 2.2 13.3 2.4 13.2 2.6 13.1 C 2.8 12.9 3.1 12.8 3.3 12.6 C 9 9.4 21.7 2.2 23.5 1.2 C 23.7 1.1 23.8 1 23.8 1 C 23.9 0.9 24 0.8 24 0.6 C 24 0.6 24 0.5 24 0.5 Z"
        fill="#0027B3" />
    <path d="M 40.2 30.8 V 5.4 H 43.2 V 28.2 H 56 V 30.8 H 40.2 Z" fill="#212121" />
    <path
        d="M 66.3 31.1 C 64.6 31.1 63.3 30.7 62.1 30 C 60.9 29.2 59.9 28.2 59.3 26.8 C 58.6 25.4 58.3 23.7 58.3 21.8 C 58.3 19.8 58.6 18.1 59.3 16.7 C 59.9 15.3 60.9 14.3 62.1 13.5 C 63.3 12.8 64.6 12.4 66.3 12.4 C 67.9 12.4 69.3 12.8 70.5 13.6 C 71.7 14.5 72.4 15.6 72.8 17 H 72.4 L 72.8 12.7 H 75.6 C 75.5 13.4 75.5 14.1 75.4 14.8 C 75.4 15.6 75.3 16.3 75.3 16.9 V 30.8 H 72.4 V 26.6 H 72.8 C 72.5 28 71.7 29.1 70.5 29.9 C 69.2 30.7 67.8 31.1 66.3 31.1 Z M 66.8 28.7 C 68.5 28.7 69.9 28.2 70.9 26.9 C 71.9 25.7 72.4 24 72.4 21.7 C 72.4 19.4 71.9 17.7 70.9 16.5 C 69.9 15.3 68.5 14.7 66.8 14.7 C 65.1 14.7 63.8 15.3 62.8 16.5 C 61.8 17.7 61.2 19.4 61.2 21.7 C 61.2 24 61.7 25.7 62.8 26.9 C 63.8 28.2 65.1 28.7 66.8 28.7 Z"
        fill="#212121" />
    <path
        d="M 85.5 30.8 L 78.9 12.7 H 81.9 L 87.5 28.7 H 86.6 L 92.3 12.7 H 94.8 L 100.4 28.7 H 99.5 L 105.1 12.7 H 108 L 101.4 30.8 H 98.6 L 92.8 14.6 H 94.2 L 88.4 30.8 H 85.5 Z"
        fill="#212121" />
    <path
        d="M 111.6 39 L 110.9 36.6 C 112 36.3 113 36 113.7 35.7 C 114.5 35.3 115.1 34.9 115.6 34.3 C 116.1 33.7 116.5 33 116.9 32.1 L 117.8 30 L 117.7 31.2 L 109.9 12.7 H 113 L 119.5 28.6 H 118.6 L 125 12.7 H 128 L 119.7 32.3 C 119.2 33.5 118.7 34.5 118.2 35.2 C 117.6 36 117 36.7 116.3 37.2 C 115.7 37.7 115 38 114.2 38.3 C 113.3 38.6 112.5 38.8 111.6 39 Z"
        fill="#212121" />
    <path
        d="M 137.8 31.1 C 136.2 31.1 134.8 30.7 133.6 30 C 132.4 29.2 131.5 28.2 130.8 26.8 C 130.2 25.4 129.8 23.7 129.8 21.8 C 129.8 19.8 130.2 18.1 130.8 16.7 C 131.5 15.3 132.4 14.3 133.6 13.5 C 134.8 12.8 136.2 12.4 137.8 12.4 C 139.4 12.4 140.8 12.8 142 13.6 C 143.2 14.5 144 15.6 144.4 17 H 144 L 144.4 12.7 H 147.2 C 147.1 13.4 147.1 14.1 147 14.8 C 146.9 15.6 146.9 16.3 146.9 16.9 V 30.8 H 144 V 26.6 H 144.4 C 144 28 143.2 29.1 142 29.9 C 140.8 30.7 139.4 31.1 137.8 31.1 Z M 138.3 28.7 C 140 28.7 141.4 28.2 142.4 26.9 C 143.4 25.7 143.9 24 143.9 21.7 C 143.9 19.4 143.4 17.7 142.4 16.5 C 141.4 15.3 140 14.7 138.3 14.7 C 136.6 14.7 135.3 15.3 134.3 16.5 C 133.3 17.7 132.8 19.4 132.8 21.7 C 132.8 24 133.2 25.7 134.3 26.9 C 135.3 28.2 136.7 28.7 138.3 28.7 Z"
        fill="#212121" />
    <path
        d="M 152.4 30.8 V 16.9 C 152.4 16.2 152.4 15.5 152.4 14.8 C 152.3 14.1 152.2 13.4 152.2 12.7 H 154.9 L 155.3 16.6 H 154.9 C 155.4 15.3 156.3 14.2 157.4 13.5 C 158.6 12.7 159.9 12.4 161.4 12.4 C 163.6 12.4 165.2 13 166.2 14.1 C 167.3 15.2 167.9 17 167.9 19.5 V 30.8 H 165 V 19.7 C 165 18 164.6 16.7 163.9 16 C 163.3 15.2 162.2 14.8 160.8 14.8 C 159.1 14.8 157.8 15.3 156.8 16.4 C 155.8 17.4 155.3 18.8 155.3 20.5 V 30.8 H 152.4 Z"
        fill="#212121" />
    <path
        d="M 179.8 31.1 C 178 31.1 176.7 30.6 175.7 29.6 C 174.8 28.6 174.3 27 174.3 24.9 V 15 H 170.8 V 12.7 H 174.3 V 7.8 L 177.2 7 V 12.7 H 182.4 V 15 H 177.2 V 24.7 C 177.2 26.1 177.5 27.1 178 27.7 C 178.5 28.4 179.2 28.7 180.2 28.7 C 180.6 28.7 181 28.6 181.4 28.5 C 181.8 28.4 182 28.4 182.3 28.2 V 30.7 C 182 30.8 181.6 30.9 181.1 31 C 180.7 31.1 180.3 31.1 179.8 31.1 Z"
        fill="#212121" />
    <path
        d="M 185.9 30.8 V 17.1 C 185.9 16.4 185.9 15.6 185.9 14.8 C 185.8 14.1 185.8 13.4 185.7 12.7 H 188.5 L 188.8 17.1 L 188.3 17.1 C 188.6 16.1 189 15.2 189.6 14.5 C 190.2 13.8 190.9 13.3 191.7 12.9 C 192.5 12.6 193.4 12.3 194.2 12.3 C 194.6 12.3 194.9 12.3 195.2 12.4 C 195.5 12.4 195.7 12.5 196 12.6 L 195.9 15.1 C 195.6 15 195.2 14.9 194.9 14.9 C 194.6 14.8 194.3 14.8 193.9 14.8 C 192.9 14.8 191.9 15.1 191.2 15.6 C 190.4 16.1 189.8 16.8 189.4 17.6 C 189 18.4 188.8 19.2 188.8 20.1 V 30.7 H 185.9 V 30.8 Z"
        fill="#212121" />
    <path
        d="M 205.6 31.1 C 204 31.1 202.6 30.7 201.4 30 C 200.2 29.2 199.3 28.2 198.7 26.8 C 198 25.4 197.7 23.7 197.7 21.8 C 197.7 19.8 198 18.1 198.7 16.7 C 199.3 15.3 200.2 14.3 201.4 13.5 C 202.6 12.8 204 12.4 205.6 12.4 C 207.2 12.4 208.7 12.8 209.9 13.6 C 211.1 14.5 211.8 15.6 212.2 17 H 211.8 L 212.2 12.7 H 215 C 214.9 13.4 214.9 14.1 214.8 14.8 C 214.8 15.6 214.7 16.3 214.7 16.9 V 30.8 H 211.8 V 26.6 H 212.2 C 211.8 28 211.1 29.1 209.9 29.9 C 208.6 30.7 207.2 31.1 205.6 31.1 Z M 206.2 28.7 C 207.9 28.7 209.3 28.2 210.3 26.9 C 211.3 25.7 211.8 24 211.8 21.7 C 211.8 19.4 211.3 17.7 210.3 16.5 C 209.3 15.3 207.9 14.7 206.2 14.7 C 204.5 14.7 203.1 15.3 202.1 16.5 C 201.2 17.7 200.6 19.4 200.6 21.7 C 200.6 24 201.1 25.7 202.1 26.9 C 203.1 28.2 204.5 28.7 206.2 28.7 Z"
        fill="#212121" />
</svg>